<?xml version="1.0" encoding="UTF-8"?>
<svg xmlns="http://www.w3.org/2000/svg" width="200" height="75" preserveAspectRatio="xMidYMid meet" viewBox="0 0 172.245 70.811">
<path d="m13.294,21.289c.253.265.379.578.379.939,0,.385-.126.71-.379.975-.253.265-.572.397-.957.397s-.71-.132-.975-.397c-.265-.265-.397-.589-.397-.975,0-.361.132-.674.397-.939s.59-.397.975-.397.704.133.957.397Zm-.054,3.574c-.241-.24-.542-.361-.903-.361-.385,0-.71.133-.975.397s-.397.578-.397.939c0,.385.132.71.397.975.265.265.59.397.975.397.77,0,1.215-.385,1.336-1.155.265.241.565.361.903.361.385,0,.71-.132.975-.397.265-.265.397-.578.397-.939,0-.385-.133-.71-.397-.975-.265-.265-.59-.397-.975-.397-.771,0-1.216.385-1.336,1.155Zm.054,3.646c.253.265.379.578.379.939,0,.385-.126.71-.379.975-.253.265-.572.397-.957.397s-.71-.132-.975-.397c-.265-.265-.397-.589-.397-.975,0-.361.132-.674.397-.939s.59-.397.975-.397.704.133.957.397Zm0,3.61c.253.265.379.578.379.939,0,.385-.126.71-.379.975-.253.265-.572.397-.957.397s-.71-.132-.975-.397c-.265-.265-.397-.589-.397-.975,0-.361.132-.674.397-.939s.59-.397.975-.397.704.133.957.397Zm0,3.61c.253.265.379.578.379.939,0,.385-.126.71-.379.975-.253.265-.572.397-.957.397s-.71-.132-.975-.397c-.265-.265-.397-.589-.397-.975,0-.361.132-.674.397-.939s.59-.397.975-.397.704.133.957.397Zm0,3.61c.253.265.379.578.379.939,0,.385-.126.71-.379.975-.253.265-.572.397-.957.397s-.71-.132-.975-.397c-.265-.265-.397-.589-.397-.975,0-.361.132-.674.397-.939.265-.265.59-.397.975-.397s.704.133.957.397Zm0,3.61c.253.265.379.578.379.939,0,.385-.126.71-.379.975-.253.265-.572.397-.957.397s-.71-.132-.975-.397c-.265-.265-.397-.589-.397-.975,0-.361.132-.674.397-.939.265-.265.59-.397.975-.397s.704.133.957.397Zm0,3.61c.253.265.379.578.379.939,0,.385-.126.71-.379.975-.253.265-.572.397-.957.397s-.71-.133-.975-.397c-.265-.265-.397-.59-.397-.975,0-.361.132-.674.397-.939.265-.265.59-.397.975-.397s.704.133.957.397Zm4.495-19.64c.265.265.397.59.397.975,0,.361-.133.674-.397.939s-.578.397-.939.397c-.385,0-.71-.132-.975-.397-.265-.265-.397-.578-.397-.939,0-.385.132-.71.397-.975.265-.265.59-.397.975-.397.361,0,.674.133.939.397Zm2.274,2.834c.265.253.397.572.397.957s-.133.71-.397.975c-.265.265-.59.397-.975.397s-.704-.132-.957-.397c-.253-.265-.379-.589-.379-.975s.126-.704.379-.957c.253-.253.571-.379.957-.379s.71.126.975.379Zm2.238,2.834c.264.265.397.578.397.939,0,.385-.133.71-.397.975-.265.265-.59.397-.975.397-.361,0-.674-.132-.939-.397-.265-.265-.397-.59-.397-.975,0-.361.132-.674.397-.939.265-.265.578-.397.939-.397.385,0,.71.133.975.397Zm2.238,2.816c.264.265.397.578.397.939,0,.385-.133.71-.397.975-.265.265-.578.397-.939.397-.385,0-.71-.132-.975-.397-.265-.265-.397-.589-.397-.975,0-.361.132-.674.397-.939.265-.265.59-.397.975-.397.361,0,.673.133.939.397Zm2.274-2.816c.265.265.397.578.397.939,0,.385-.133.71-.397.975-.265.265-.59.397-.975.397-.361,0-.674-.132-.939-.397-.265-.265-.397-.59-.397-.975,0-.361.132-.674.397-.939.264-.265.578-.397.939-.397.385,0,.71.133.975.397Zm2.238-2.834c.264.253.397.572.397.957s-.133.71-.397.975c-.265.265-.59.397-.975.397-.361,0-.674-.132-.939-.397-.265-.265-.397-.589-.397-.975s.132-.704.397-.957c.265-.253.578-.379.939-.379.385,0,.71.126.975.379Zm2.238-2.834c.265.265.397.59.397.975,0,.361-.133.674-.397.939-.265.265-.578.397-.939.397-.385,0-.71-.132-.975-.397-.265-.265-.397-.578-.397-.939,0-.385.132-.71.397-.975.264-.265.59-.397.975-.397.361,0,.674.133.939.397Zm2.636-2.058c-.121-.77-.566-1.155-1.336-1.155-.361,0-.674.133-.939.397-.265.265-.397.59-.397.975,0,.361.132.674.397.939.265.265.578.397.939.397s.662-.12.903-.361c.12.771.565,1.155,1.336,1.155.385,0,.71-.132.975-.397.265-.265.397-.589.397-.975,0-.361-.133-.674-.397-.939-.265-.265-.59-.397-.975-.397-.337,0-.638.121-.903.361Zm1.877-3.574c.265.265.397.578.397.939,0,.385-.133.71-.397.975-.265.265-.59.397-.975.397-.361,0-.674-.132-.939-.397-.265-.265-.397-.589-.397-.975,0-.361.132-.674.397-.939.264-.265.578-.397.939-.397.385,0,.71.133.975.397Zm0,7.22c.265.265.397.578.397.939,0,.385-.133.71-.397.975-.265.265-.59.397-.975.397-.361,0-.674-.132-.939-.397-.265-.265-.397-.589-.397-.975,0-.361.132-.674.397-.939.264-.265.578-.397.939-.397.385,0,.71.133.975.397Zm0,3.61c.265.265.397.578.397.939,0,.385-.133.71-.397.975-.265.265-.59.397-.975.397-.361,0-.674-.132-.939-.397-.265-.265-.397-.589-.397-.975,0-.361.132-.674.397-.939.264-.265.578-.397.939-.397.385,0,.71.133.975.397Zm0,3.61c.265.265.397.578.397.939,0,.385-.133.71-.397.975-.265.265-.59.397-.975.397-.361,0-.674-.132-.939-.397-.265-.265-.397-.589-.397-.975,0-.361.132-.674.397-.939.264-.265.578-.397.939-.397.385,0,.71.133.975.397Zm0,3.61c.265.265.397.578.397.939,0,.385-.133.71-.397.975-.265.265-.59.397-.975.397-.361,0-.674-.132-.939-.397-.265-.265-.397-.589-.397-.975,0-.361.132-.674.397-.939.264-.265.578-.397.939-.397.385,0,.71.133.975.397Zm0,3.61c.265.265.397.578.397.939,0,.385-.133.71-.397.975-.265.265-.59.397-.975.397-.361,0-.674-.132-.939-.397-.265-.265-.397-.589-.397-.975,0-.361.132-.674.397-.939.264-.265.578-.397.939-.397.385,0,.71.133.975.397Zm0,3.61c.265.265.397.578.397.939,0,.385-.133.71-.397.975-.265.265-.59.397-.975.397-.361,0-.674-.133-.939-.397-.265-.265-.397-.59-.397-.975,0-.361.132-.674.397-.939.264-.265.578-.397.939-.397.385,0,.71.133.975.397Z" style="fill:#000000; stroke-width:0px;"/>
<path d="m43.252,21.221c.253.265.379.578.379.939,0,.385-.126.71-.379.975-.253.265-.572.397-.957.397s-.71-.132-.975-.397c-.265-.265-.397-.589-.397-.975,0-.361.132-.674.397-.939.265-.265.59-.397.975-.397s.704.133.957.397Zm0,3.61c.253.265.379.578.379.939,0,.385-.126.71-.379.975-.253.265-.572.397-.957.397s-.71-.132-.975-.397c-.265-.265-.397-.589-.397-.975,0-.361.132-.674.397-.939.265-.265.59-.397.975-.397s.704.133.957.397Zm0,3.61c.253.265.379.578.379.939,0,.385-.126.71-.379.975-.253.265-.572.397-.957.397s-.71-.132-.975-.397c-.265-.265-.397-.589-.397-.975,0-.361.132-.674.397-.939.265-.265.59-.397.975-.397s.704.133.957.397Zm0,3.61c.253.265.379.578.379.939,0,.385-.126.71-.379.975-.253.265-.572.397-.957.397s-.71-.132-.975-.397c-.265-.265-.397-.589-.397-.975,0-.361.132-.674.397-.939.265-.265.59-.397.975-.397s.704.133.957.397Zm0,3.61c.253.265.379.578.379.939,0,.385-.126.71-.379.975-.253.265-.572.397-.957.397s-.71-.132-.975-.397c-.265-.265-.397-.589-.397-.975,0-.361.132-.674.397-.939.265-.265.59-.397.975-.397s.704.133.957.397Zm0,3.61c.253.265.379.578.379.939,0,.385-.126.71-.379.975-.253.265-.572.397-.957.397s-.71-.132-.975-.397c-.265-.265-.397-.589-.397-.975,0-.361.132-.674.397-.939.265-.265.59-.397.975-.397s.704.133.957.397Zm0,3.61c.253.265.379.578.379.939,0,.385-.126.71-.379.975-.253.265-.572.397-.957.397s-.71-.132-.975-.397c-.265-.265-.397-.589-.397-.975,0-.361.132-.674.397-.939.265-.265.59-.397.975-.397s.704.133.957.397Zm0,3.61c.253.265.379.578.379.939,0,.385-.126.71-.379.975-.253.265-.572.397-.957.397s-.71-.133-.975-.397c-.265-.265-.397-.59-.397-.975,0-.361.132-.674.397-.939.265-.265.59-.397.975-.397s.704.133.957.397Zm3.61-25.272c.253.265.379.578.379.939,0,.385-.126.71-.379.975-.253.265-.572.397-.957.397s-.71-.132-.975-.397c-.265-.265-.397-.589-.397-.975,0-.361.132-.674.397-.939.265-.265.59-.397.975-.397s.704.133.957.397Zm0,10.831c.253.265.379.578.379.939,0,.385-.126.71-.379.975-.253.265-.572.397-.957.397s-.71-.132-.975-.397c-.265-.265-.397-.589-.397-.975,0-.361.132-.674.397-.939.265-.265.59-.397.975-.397s.704.133.957.397Zm0,14.441c.253.265.379.578.379.939,0,.385-.126.71-.379.975-.253.265-.572.397-.957.397s-.71-.133-.975-.397c-.265-.265-.397-.59-.397-.975,0-.361.132-.674.397-.939.265-.265.59-.397.975-.397s.704.133.957.397Zm3.61-25.272c.253.265.379.578.379.939,0,.385-.126.71-.379.975-.253.265-.572.397-.957.397s-.71-.132-.975-.397c-.265-.265-.397-.589-.397-.975,0-.361.132-.674.397-.939.265-.265.59-.397.975-.397s.704.133.957.397Zm0,10.831c.253.265.379.578.379.939,0,.385-.126.71-.379.975-.253.265-.572.397-.957.397s-.71-.132-.975-.397c-.265-.265-.397-.589-.397-.975,0-.361.132-.674.397-.939.265-.265.59-.397.975-.397s.704.133.957.397Zm0,14.441c.253.265.379.578.379.939,0,.385-.126.71-.379.975-.253.265-.572.397-.957.397s-.71-.133-.975-.397c-.265-.265-.397-.59-.397-.975,0-.361.132-.674.397-.939.265-.265.59-.397.975-.397s.704.133.957.397Zm3.61-25.272c.253.265.379.578.379.939,0,.385-.126.71-.379.975-.253.265-.572.397-.957.397s-.71-.132-.975-.397c-.265-.265-.397-.589-.397-.975,0-.361.132-.674.397-.939.265-.265.59-.397.975-.397s.704.133.957.397Zm0,10.831c.253.265.379.578.379.939,0,.385-.126.71-.379.975-.253.265-.572.397-.957.397s-.71-.132-.975-.397c-.265-.265-.397-.589-.397-.975,0-.361.132-.674.397-.939.265-.265.59-.397.975-.397s.704.133.957.397Zm0,14.441c.253.265.379.578.379.939,0,.385-.126.71-.379.975-.253.265-.572.397-.957.397s-.71-.133-.975-.397c-.265-.265-.397-.59-.397-.975,0-.361.132-.674.397-.939.265-.265.59-.397.975-.397s.704.133.957.397Zm3.61-25.272c.253.265.379.578.379.939,0,.385-.126.71-.379.975-.253.265-.572.397-.957.397s-.71-.132-.975-.397c-.265-.265-.397-.589-.397-.975,0-.361.132-.674.397-.939.265-.265.59-.397.975-.397s.704.133.957.397Zm0,25.272c.253.265.379.578.379.939,0,.385-.126.71-.379.975-.253.265-.572.397-.957.397s-.71-.133-.975-.397c-.265-.265-.397-.59-.397-.975,0-.361.132-.674.397-.939.265-.265.59-.397.975-.397s.704.133.957.397Z" style="fill:#000000; stroke-width:0px;"/>
<path d="m57.772,21.289c.253.265.379.578.379.939,0,.385-.126.71-.379.975-.253.265-.572.397-.957.397s-.71-.132-.975-.397c-.265-.265-.397-.589-.397-.975,0-.361.132-.674.397-.939.265-.265.59-.397.975-.397s.704.133.957.397Zm3.61,0c.253.265.379.578.379.939,0,.385-.126.71-.379.975-.253.265-.572.397-.957.397s-.71-.132-.975-.397c-.265-.265-.397-.589-.397-.975,0-.361.132-.674.397-.939.265-.265.59-.397.975-.397s.704.133.957.397Zm3.61,0c.253.265.379.578.379.939,0,.385-.126.71-.379.975-.253.265-.572.397-.957.397s-.71-.132-.975-.397c-.265-.265-.397-.589-.397-.975,0-.361.132-.674.397-.939.265-.265.59-.397.975-.397s.704.133.957.397Zm3.61,0c.253.265.379.578.379.939,0,.385-.126.71-.379.975-.253.265-.572.397-.957.397s-.71-.132-.975-.397c-.265-.265-.397-.589-.397-.975,0-.361.132-.674.397-.939.265-.265.59-.397.975-.397s.704.133.957.397Zm0,3.61c.253.265.379.578.379.939,0,.385-.126.71-.379.975-.253.265-.572.397-.957.397s-.71-.132-.975-.397c-.265-.265-.397-.589-.397-.975,0-.361.132-.674.397-.939.265-.265.59-.397.975-.397s.704.133.957.397Zm0,3.61c.253.265.379.578.379.939,0,.385-.126.71-.379.975-.253.265-.572.397-.957.397s-.71-.132-.975-.397c-.265-.265-.397-.589-.397-.975,0-.361.132-.674.397-.939.265-.265.59-.397.975-.397s.704.133.957.397Zm0,3.61c.253.265.379.578.379.939,0,.385-.126.71-.379.975-.253.265-.572.397-.957.397s-.71-.132-.975-.397c-.265-.265-.397-.589-.397-.975,0-.361.132-.674.397-.939.265-.265.59-.397.975-.397s.704.133.957.397Zm0,3.61c.253.265.379.578.379.939,0,.385-.126.71-.379.975-.253.265-.572.397-.957.397s-.71-.132-.975-.397c-.265-.265-.397-.589-.397-.975,0-.361.132-.674.397-.939.265-.265.59-.397.975-.397s.704.133.957.397Zm0,3.61c.253.265.379.578.379.939,0,.385-.126.71-.379.975-.253.265-.572.397-.957.397s-.71-.132-.975-.397c-.265-.265-.397-.589-.397-.975,0-.361.132-.674.397-.939.265-.265.59-.397.975-.397s.704.133.957.397Zm0,3.61c.253.265.379.578.379.939,0,.385-.126.71-.379.975-.253.265-.572.397-.957.397s-.71-.132-.975-.397c-.265-.265-.397-.589-.397-.975,0-.361.132-.674.397-.939.265-.265.59-.397.975-.397s.704.133.957.397Zm0,3.61c.253.265.379.578.379.939,0,.385-.126.71-.379.975-.253.265-.572.397-.957.397s-.71-.133-.975-.397c-.265-.265-.397-.59-.397-.975,0-.361.132-.674.397-.939.265-.265.59-.397.975-.397s.704.133.957.397Zm3.61-25.272c.253.265.379.578.379.939,0,.385-.126.71-.379.975-.253.265-.572.397-.957.397s-.71-.132-.975-.397c-.265-.265-.397-.589-.397-.975,0-.361.132-.674.397-.939.265-.265.59-.397.975-.397s.704.133.957.397Zm3.61,0c.253.265.379.578.379.939,0,.385-.126.71-.379.975-.253.265-.572.397-.957.397s-.71-.132-.975-.397c-.265-.265-.397-.589-.397-.975,0-.361.132-.674.397-.939.265-.265.59-.397.975-.397s.704.133.957.397Zm3.61,0c.253.265.379.578.379.939,0,.385-.126.71-.379.975-.253.265-.572.397-.957.397s-.71-.132-.975-.397c-.265-.265-.397-.589-.397-.975,0-.361.132-.674.397-.939.265-.265.59-.397.975-.397s.704.133.957.397Z" style="fill:#000000; stroke-width:0px;"/>
<path d="m83.404,21.289c.253.265.379.578.379.939,0,.385-.126.71-.379.975-.253.265-.572.397-.957.397s-.71-.132-.975-.397c-.265-.265-.397-.589-.397-.975,0-.361.132-.674.397-.939.265-.265.59-.397.975-.397s.704.133.957.397Zm0,3.61c.253.265.379.578.379.939,0,.385-.126.71-.379.975-.253.265-.572.397-.957.397s-.71-.132-.975-.397c-.265-.265-.397-.589-.397-.975,0-.361.132-.674.397-.939.265-.265.59-.397.975-.397s.704.133.957.397Zm0,3.61c.253.265.379.578.379.939,0,.385-.126.71-.379.975-.253.265-.572.397-.957.397s-.71-.132-.975-.397c-.265-.265-.397-.589-.397-.975,0-.361.132-.674.397-.939.265-.265.59-.397.975-.397s.704.133.957.397Zm0,3.61c.253.265.379.578.379.939,0,.385-.126.71-.379.975-.253.265-.572.397-.957.397s-.71-.132-.975-.397c-.265-.265-.397-.589-.397-.975,0-.361.132-.674.397-.939.265-.265.59-.397.975-.397s.704.133.957.397Zm0,3.61c.253.265.379.578.379.939,0,.385-.126.71-.379.975-.253.265-.572.397-.957.397s-.71-.132-.975-.397c-.265-.265-.397-.589-.397-.975,0-.361.132-.674.397-.939.265-.265.59-.397.975-.397s.704.133.957.397Zm0,3.61c.253.265.379.578.379.939,0,.385-.126.71-.379.975-.253.265-.572.397-.957.397s-.71-.132-.975-.397c-.265-.265-.397-.589-.397-.975,0-.361.132-.674.397-.939.265-.265.59-.397.975-.397s.704.133.957.397Zm0,3.61c.253.265.379.578.379.939,0,.385-.126.71-.379.975-.253.265-.572.397-.957.397s-.71-.132-.975-.397c-.265-.265-.397-.589-.397-.975,0-.361.132-.674.397-.939.265-.265.59-.397.975-.397s.704.133.957.397Zm0,3.61c.253.265.379.578.379.939,0,.385-.126.71-.379.975-.253.265-.572.397-.957.397s-.71-.133-.975-.397c-.265-.265-.397-.59-.397-.975,0-.361.132-.674.397-.939.265-.265.59-.397.975-.397s.704.133.957.397Zm3.556-10.795c.265.265.397.578.397.939,0,.385-.133.71-.397.975-.265.265-.578.397-.939.397-.385,0-.71-.132-.975-.397-.265-.265-.397-.589-.397-.975,0-.361.132-.674.397-.939.264-.265.589-.397.975-.397.361,0,.674.133.939.397Zm.054-14.477c.253.265.379.578.379.939,0,.385-.126.71-.379.975-.253.265-.572.397-.957.397s-.71-.132-.975-.397c-.265-.265-.397-.589-.397-.975,0-.361.132-.674.397-.939.265-.265.59-.397.975-.397s.704.133.957.397Zm3.556,14.477c.265.265.397.578.397.939,0,.385-.133.71-.397.975-.265.265-.578.397-.939.397-.385,0-.71-.132-.975-.397-.265-.265-.397-.589-.397-.975,0-.361.132-.674.397-.939.264-.265.589-.397.975-.397.361,0,.674.133.939.397Zm.054-14.477c.253.265.379.578.379.939,0,.385-.126.71-.379.975-.253.265-.572.397-.957.397s-.71-.132-.975-.397c-.265-.265-.397-.589-.397-.975,0-.361.132-.674.397-.939.265-.265.59-.397.975-.397s.704.133.957.397Zm2.329,17.167c.264.253.397.572.397.957s-.133.71-.397.975c-.265.265-.578.397-.939.397-.385,0-.71-.132-.975-.397-.265-.265-.397-.589-.397-.975s.132-.704.397-.957c.265-.253.59-.379.975-.379.361,0,.673.126.939.379Zm1.227-2.942c.265.265.397.59.397.975,0,.361-.133.674-.397.939-.265.265-.59.397-.975.397-.361,0-.674-.132-.939-.397-.265-.265-.397-.578-.397-.939,0-.385.132-.71.397-.975.264-.265.578-.397.939-.397.385,0,.71.133.975.397Zm.036-13.863c.264.265.397.578.397.939,0,.385-.133.71-.397.975-.265.265-.59.397-.975.397-.361,0-.674-.132-.939-.397-.265-.265-.397-.589-.397-.975,0-.361.132-.674.397-.939.265-.265.578-.397.939-.397.385,0,.71.133.975.397Zm1.119,19.495c.264.265.397.59.397.975,0,.361-.133.674-.397.939-.265.265-.578.397-.939.397-.385,0-.71-.132-.975-.397-.265-.265-.397-.578-.397-.939,0-.385.132-.71.397-.975.265-.265.59-.397.975-.397.361,0,.673.133.939.397Zm1.805-17.51c.264.265.397.59.397.975,0,.361-.133.674-.397.939-.265.265-.578.397-.939.397-.385,0-.71-.132-.975-.397-.265-.265-.397-.578-.397-.939,0-.385.132-.71.397-.975.265-.265.59-.397.975-.397.361,0,.673.133.939.397Zm.072,10.036c.265.265.397.578.397.939,0,.385-.133.71-.397.975-.265.265-.59.397-.975.397s-.704-.132-.957-.397c-.253-.265-.379-.59-.379-.975,0-.361.126-.674.379-.939.253-.265.572-.397.957-.397s.71.133.975.397Zm.505,10.181c.265.265.397.59.397.975,0,.361-.133.674-.397.939-.265.265-.578.397-.939.397-.385,0-.71-.132-.975-.397-.265-.265-.397-.578-.397-.939,0-.385.132-.71.397-.975.265-.265.59-.397.975-.397.361,0,.673.133.939.397Zm.975-17.004c.265.265.397.578.397.939,0,.385-.133.71-.397.975-.265.265-.578.397-.939.397-.385,0-.71-.132-.975-.397-.265-.265-.397-.59-.397-.975,0-.361.132-.674.397-.939.264-.265.589-.397.975-.397.361,0,.674.133.939.397Zm.036,3.61c.264.265.397.578.397.939,0,.385-.133.71-.397.975-.265.265-.578.397-.939.397-.385,0-.71-.132-.975-.397-.265-.265-.397-.589-.397-.975,0-.361.132-.674.397-.939.265-.265.59-.397.975-.397.361,0,.673.133.939.397Zm1.372,16.102c.265.265.397.578.397.939,0,.385-.133.71-.397.975-.265.265-.578.397-.939.397-.385,0-.71-.133-.975-.397-.265-.265-.397-.59-.397-.975,0-.361.132-.674.397-.939.264-.265.59-.397.975-.397.361,0,.674.133.939.397Z" style="fill:#000000; stroke-width:0px;"/>
<path d="m105.895,21.289c.253.265.379.578.379.939,0,.385-.126.71-.379.975-.253.265-.572.397-.957.397s-.71-.132-.975-.397c-.265-.265-.397-.589-.397-.975,0-.361.132-.674.397-.939.265-.265.59-.397.975-.397s.704.133.957.397Zm0,3.61c.253.265.379.578.379.939,0,.385-.126.71-.379.975-.253.265-.572.397-.957.397s-.71-.132-.975-.397c-.265-.265-.397-.589-.397-.975,0-.361.132-.674.397-.939.265-.265.59-.397.975-.397s.704.133.957.397Zm0,3.616c.253.269.379.586.379.951,0,.39-.126.719-.379.988-.253.269-.572.402-.957.402s-.71-.134-.975-.402c-.265-.269-.397-.597-.397-.988,0-.366.132-.683.397-.951.265-.269.59-.403.975-.403s.704.134.957.403Zm0,3.61c.253.269.379.586.379.951,0,.39-.126.719-.379.988-.253.269-.572.402-.957.402s-.71-.134-.975-.402c-.265-.269-.397-.597-.397-.988,0-.366.132-.683.397-.951.265-.269.59-.403.975-.403s.704.134.957.403Zm0,3.61c.253.269.379.586.379.951,0,.39-.126.719-.379.988-.253.269-.572.402-.957.402s-.71-.134-.975-.402c-.265-.269-.397-.597-.397-.988,0-.366.132-.683.397-.951.265-.269.59-.403.975-.403s.704.134.957.403Zm0,3.61c.253.269.379.586.379.951,0,.39-.126.719-.379.988-.253.269-.572.402-.957.402s-.71-.134-.975-.402c-.265-.269-.397-.597-.397-.988,0-.366.132-.683.397-.951.265-.269.59-.403.975-.403s.704.134.957.403Zm0,3.61c.253.269.379.586.379.951,0,.39-.126.719-.379.988-.253.269-.572.402-.957.402s-.71-.134-.975-.402c-.265-.269-.397-.597-.397-.988,0-.366.132-.683.397-.951.265-.269.59-.403.975-.403s.704.134.957.403Zm0,3.605c.253.265.379.578.379.939,0,.385-.126.71-.379.975-.253.265-.572.397-.957.397s-.71-.133-.975-.397c-.265-.265-.397-.59-.397-.975,0-.361.132-.674.397-.939.265-.265.59-.397.975-.397s.704.133.957.397Z" style="fill:#000000; stroke-width:0px;"/>
<path d="m112.393,33.925c.253.265.379.578.379.939,0,.385-.126.71-.379.975-.253.265-.572.397-.957.397s-.71-.132-.975-.397c-.265-.265-.397-.589-.397-.975,0-.361.132-.674.397-.939.265-.265.59-.397.975-.397s.704.133.957.397Zm.487-3.574c.265.265.397.59.397.975,0,.361-.133.674-.397.939-.265.265-.578.397-.939.397-.385,0-.71-.132-.975-.397-.265-.265-.397-.578-.397-.939,0-.385.132-.71.397-.975.264-.265.589-.397.975-.397.361,0,.674.133.939.397Zm0,7.112c.265.265.397.59.397.975,0,.361-.133.674-.397.939-.265.265-.578.397-.939.397-.385,0-.71-.132-.975-.397-.265-.265-.397-.578-.397-.939,0-.385.132-.71.397-.975.264-.265.589-.397.975-.397.361,0,.674.133.939.397Zm1.444-10.397c.265.265.397.578.397.939,0,.385-.133.71-.397.975-.265.265-.59.397-.975.397-.361,0-.674-.132-.939-.397-.265-.265-.397-.589-.397-.975,0-.361.132-.674.397-.939.264-.265.578-.397.939-.397.385,0,.71.133.975.397Zm0,13.719c.265.265.397.578.397.939,0,.385-.133.71-.397.975-.265.265-.59.397-.975.397-.361,0-.674-.132-.939-.397-.265-.265-.397-.589-.397-.975,0-.361.132-.674.397-.939.264-.265.578-.397.939-.397.385,0,.71.133.975.397Zm2.274-16.499c.265.265.397.578.397.939,0,.385-.133.71-.397.975-.265.265-.59.397-.975.397-.361,0-.674-.132-.939-.397-.265-.265-.397-.59-.397-.975,0-.361.132-.674.397-.939.265-.265.578-.397.939-.397.385,0,.71.133.975.397Zm0,19.279c.265.265.397.578.397.939,0,.385-.133.71-.397.975-.265.265-.59.397-.975.397-.361,0-.674-.132-.939-.397-.265-.265-.397-.59-.397-.975,0-.361.132-.674.397-.939.265-.265.578-.397.939-.397.385,0,.71.133.975.397Zm2.924-21.373c.265.265.397.578.397.939,0,.385-.133.71-.397.975-.265.265-.578.397-.939.397-.385,0-.71-.132-.975-.397-.265-.265-.397-.589-.397-.975,0-.361.132-.674.397-.939.264-.265.59-.397.975-.397.361,0,.674.133.939.397Zm0,23.466c.265.265.397.578.397.939,0,.385-.133.71-.397.975-.265.265-.578.397-.939.397-.385,0-.71-.133-.975-.397-.265-.265-.397-.589-.397-.975,0-.361.132-.674.397-.939.264-.265.59-.397.975-.397.361,0,.674.133.939.397Zm3.394-24.694c.265.265.397.59.397.975,0,.361-.133.674-.397.939-.265.265-.59.397-.975.397-.361,0-.674-.132-.939-.397-.265-.265-.397-.578-.397-.939,0-.385.132-.71.397-.975.265-.265.578-.397.939-.397.385,0,.71.133.975.397Zm0,25.885c.265.265.397.59.397.975,0,.361-.133.674-.397.939-.265.265-.59.397-.975.397-.361,0-.674-.133-.939-.397-.265-.265-.397-.578-.397-.939,0-.385.132-.71.397-.975.265-.265.578-.397.939-.397.385,0,.71.133.975.397Zm3.574-26.138c.264.265.397.578.397.939,0,.385-.133.71-.397.975-.265.265-.578.397-.939.397-.385,0-.71-.132-.975-.397-.265-.265-.397-.59-.397-.975,0-.361.132-.674.397-.939.265-.265.59-.397.975-.397.361,0,.673.133.939.397Zm0,26.409c.264.253.397.571.397.957s-.133.71-.397.975c-.265.265-.578.397-.939.397-.385,0-.71-.133-.975-.397-.265-.265-.397-.59-.397-.975s.132-.704.397-.957c.265-.253.59-.379.975-.379.361,0,.673.126.939.379Zm3.61-26.156c.264.265.397.59.397.975,0,.361-.133.674-.397.939-.265.265-.578.397-.939.397-.385,0-.71-.132-.975-.397-.265-.265-.397-.578-.397-.939,0-.385.132-.71.397-.975.265-.265.59-.397.975-.397.361,0,.673.133.939.397Zm0,25.885c.264.265.397.59.397.975,0,.361-.133.674-.397.939-.265.265-.578.397-.939.397-.385,0-.71-.133-.975-.397-.265-.265-.397-.578-.397-.939,0-.385.132-.71.397-.975.265-.265.59-.397.975-.397.361,0,.673.133.939.397Zm3.394-24.658c.264.265.397.578.397.939,0,.385-.133.71-.397.975-.265.265-.59.397-.975.397-.361,0-.674-.132-.939-.397-.265-.265-.397-.589-.397-.975,0-.361.132-.674.397-.939.265-.265.578-.397.939-.397.385,0,.71.133.975.397Zm0,23.466c.264.265.397.578.397.939,0,.385-.133.71-.397.975-.265.265-.59.397-.975.397-.361,0-.674-.133-.939-.397-.265-.265-.397-.589-.397-.975,0-.361.132-.674.397-.939.265-.265.578-.397.939-.397.385,0,.71.133.975.397Zm2.924-21.373c.264.265.397.578.397.939,0,.385-.133.71-.397.975-.265.265-.578.397-.939.397-.385,0-.71-.132-.975-.397-.265-.265-.397-.59-.397-.975,0-.361.132-.674.397-.939.265-.265.59-.397.975-.397.361,0,.673.133.939.397Zm0,19.279c.264.265.397.578.397.939,0,.385-.133.71-.397.975-.265.265-.578.397-.939.397-.385,0-.71-.132-.975-.397-.265-.265-.397-.59-.397-.975,0-.361.132-.674.397-.939.265-.265.59-.397.975-.397.361,0,.673.133.939.397Z" style="fill:#000000; stroke-width:0px;"/>
<path d="m140.581,39.596c.265.265.397.578.397.939,0,.385-.133.71-.397.975-.265.265-.59.397-.975.397-.361,0-.674-.132-.939-.397-.265-.265-.397-.589-.397-.975,0-.361.132-.674.397-.939.264-.265.578-.397.939-.397.385,0,.71.133.975.397Zm2.383-2.996c.265.265.397.578.397.939,0,.385-.133.71-.397.975-.265.265-.578.397-.939.397-.385,0-.71-.132-.975-.397-.265-.265-.397-.589-.397-.975,0-.361.132-.674.397-.939.264-.265.589-.397.975-.397.361,0,.674.133.939.397Zm1.227,2.996c.265.265.397.578.397.939,0,.385-.133.71-.397.975-.265.265-.59.397-.975.397-.361,0-.674-.132-.939-.397-.265-.265-.397-.589-.397-.975,0-.361.132-.674.397-.939.264-.265.578-.397.939-.397.385,0,.71.133.975.397Zm1.191-6.029c.264.265.397.59.397.975,0,.361-.133.674-.397.939-.265.265-.59.397-.975.397-.361,0-.674-.132-.939-.397-.265-.265-.397-.578-.397-.939,0-.385.132-.71.397-.975.265-.265.578-.397.939-.397.385,0,.71.133.975.397Zm2.419-2.996c.265.265.397.578.397.939,0,.385-.133.71-.397.975-.265.265-.59.397-.975.397-.361,0-.674-.132-.939-.397-.265-.265-.397-.589-.397-.975,0-.361.132-.674.397-.939.264-.265.578-.397.939-.397.385,0,.71.133.975.397Zm0,9.026c.265.265.397.578.397.939,0,.385-.133.71-.397.975-.265.265-.59.397-.975.397-.361,0-.674-.132-.939-.397-.265-.265-.397-.589-.397-.975,0-.361.132-.674.397-.939.264-.265.578-.397.939-.397.385,0,.71.133.975.397Zm2.383-12.022c.265.265.397.578.397.939,0,.385-.133.71-.397.975-.265.265-.578.397-.939.397-.385,0-.71-.132-.975-.397-.265-.265-.397-.589-.397-.975,0-.361.132-.674.397-.939.264-.265.589-.397.975-.397.361,0,.674.133.939.397Zm1.227,12.022c.265.265.397.578.397.939,0,.385-.133.71-.397.975-.265.265-.59.397-.975.397-.361,0-.674-.132-.939-.397-.265-.265-.397-.589-.397-.975,0-.361.132-.674.397-.939.264-.265.578-.397.939-.397.385,0,.71.133.975.397Zm1.552-14.296c-.121-.77-.566-1.155-1.336-1.155-.361,0-.674.133-.939.397-.265.265-.397.59-.397.975,0,.361.132.674.397.939.265.265.578.397.939.397.457,0,.818-.168,1.083-.505.12.746.565,1.119,1.336,1.119.385,0,.71-.132.975-.397.265-.265.397-.589.397-.975,0-.361-.133-.674-.397-.939-.265-.265-.59-.397-.975-.397-.433,0-.794.181-1.083.542Zm2.058-3.755c.265.265.397.578.397.939,0,.385-.133.71-.397.975-.265.265-.59.397-.975.397-.361,0-.674-.132-.939-.397-.265-.265-.397-.589-.397-.975,0-.361.132-.674.397-.939.264-.265.578-.397.939-.397.385,0,.71.133.975.397Zm0,7.22c.265.265.397.578.397.939,0,.385-.133.71-.397.975-.265.265-.59.397-.975.397-.361,0-.674-.132-.939-.397-.265-.265-.397-.589-.397-.975,0-.361.132-.674.397-.939.264-.265.578-.397.939-.397.385,0,.71.133.975.397Zm0,3.61c.265.265.397.578.397.939,0,.385-.133.71-.397.975-.265.265-.59.397-.975.397-.361,0-.674-.132-.939-.397-.265-.265-.397-.589-.397-.975,0-.361.132-.674.397-.939.264-.265.578-.397.939-.397.385,0,.71.133.975.397Zm0,3.61c.265.265.397.578.397.939,0,.385-.133.71-.397.975-.265.265-.59.397-.975.397-.361,0-.674-.132-.939-.397-.265-.265-.397-.589-.397-.975,0-.361.132-.674.397-.939.264-.265.578-.397.939-.397.385,0,.71.133.975.397Zm0,3.61c.265.265.397.578.397.939,0,.385-.133.71-.397.975-.265.265-.59.397-.975.397-.361,0-.674-.132-.939-.397-.265-.265-.397-.589-.397-.975,0-.361.132-.674.397-.939.264-.265.578-.397.939-.397.385,0,.71.133.975.397Zm0,3.61c.265.265.397.578.397.939,0,.385-.133.71-.397.975-.265.265-.59.397-.975.397-.361,0-.674-.132-.939-.397-.265-.265-.397-.589-.397-.975,0-.361.132-.674.397-.939.264-.265.578-.397.939-.397.385,0,.71.133.975.397Zm0,3.61c.265.265.397.578.397.939,0,.385-.133.71-.397.975-.265.265-.59.397-.975.397-.361,0-.674-.133-.939-.397-.265-.265-.397-.59-.397-.975,0-.361.132-.674.397-.939.264-.265.578-.397.939-.397.385,0,.71.133.975.397Zm3.61-7.22c.265.265.397.578.397.939,0,.385-.133.71-.397.975-.265.265-.59.397-.975.397-.361,0-.674-.132-.939-.397-.265-.265-.397-.589-.397-.975,0-.361.132-.674.397-.939.264-.265.578-.397.939-.397.385,0,.71.133.975.397Zm3.614-.033c.265.265.397.578.397.939,0,.385-.133.71-.397.975-.265.265-.59.397-.975.397-.361,0-.674-.132-.939-.397-.265-.265-.397-.589-.397-.975,0-.361.132-.674.397-.939.264-.265.578-.397.939-.397.385,0,.71.133.975.397Z" style="fill:#000000; stroke-width:0px;"/>
</svg>
